<?xml version="1.0" standalone="no"?>
<!DOCTYPE svg PUBLIC "-//W3C//DTD SVG 1.1//EN" "http://www.w3.org/Graphics/SVG/1.1/DTD/svg11.dtd" >
<svg xmlns="http://www.w3.org/2000/svg">
<metadata>Generated by IcoMoon</metadata>
<defs>
<font id="geo" horiz-adv-x="1024">
<font-face units-per-em="1024" ascent="960" descent="-64" />
<missing-glyph horiz-adv-x="1024" />
<glyph unicode="&#x20;" horiz-adv-x="512" d="" />
<glyph unicode="&#xe900;" glyph-name="class-artillery" d="M22.79 273.75l196.886 172.91c-2.244 4.35-4.412 8.674-6.43 12.94-13.61 28.74-22.166 55.368-24.206 79.52-0.128 1.5-0.226 2.996-0.3 4.486l-165.948-122.226v-147.63zM128.29-27.304h55.444l-0.5 0.42 214.6 256.864c-7.528 6.524-15.052 13.286-22.552 20.254l-246.988-277.54zM225.96 548.488c0.034-1.964 0.14-4.034 0.326-6.22 1.476-17.468 8.42-40.654 20.74-66.674 0.536-1.128 1.134-2.292 1.688-3.43l70.59 61.992c-1.44 2.812-2.86 5.616-4.2 8.386-12.79 26.49-20.954 51.008-23.108 73.366-0.114 1.184-0.2 2.366-0.28 3.548l-58.064-42.77 0.688-0.688c-5.24-5.24-8.608-13.76-8.38-27.508zM231.594-27.304h296.706l94.548 138.26c-1.99 0.072-3.986 0.176-5.992 0.344-24.154 2.040-50.784 10.596-79.524 24.208-34.68 16.426-72.42 40.43-110.696 70.648l-195.040-233.46zM328.844 625.056c0.050-1.75 0.166-3.604 0.356-5.568 1.512-15.706 8.054-36.864 19.56-60.692 23.016-47.652 65.424-106.056 121.108-161.74 55.68-55.686 114.088-98.096 161.74-121.11 23.828-11.508 44.988-18.050 60.692-19.564 15.706-1.51 24.368 1.59 29.172 6.394s7.904 13.47 6.392 29.176c-1.514 15.704-8.056 36.864-19.564 60.69-7.54 15.62-17.2 32.404-28.694 49.856 78.46-34.39 178.666-56.134 307.128-68.788-258.186 75.034-218.86 161.676-12.574 229.088-219.128-37.24-123.246 198.76 10.794 370.016-203.564-132.834-355.036-249.25-376.27 9.1-10.14-248.116-89.060-281.99-205.306-43.752 12.38-116.744 31.8-211.11 65.3-287.080-15.072 9.612-29.6 17.83-43.226 24.412-23.828 11.508-44.988 18.046-60.692 19.56-15.704 1.512-24.366-1.588-29.17-6.392-3.6-3.6-6.244-9.376-6.704-18.664-0.076-1.548-0.092-3.192-0.040-4.94zM400.144 278.172c7.22-6.706 14.452-13.2 21.684-19.468l61.94 74.132c-6.468 5.68-12.928 11.506-19.374 17.536l-64.25-72.2zM402.378 562.712c0.244 7.68 2.46 13.906 6.84 18.284 13.672 13.674 45.352 6.236 83.040-16.364 34.176-58.48 79.84-104.040 141.412-139.16 25.388-40.24 34.346-74.52 19.968-88.9-22.874-22.874-96.132 13.296-163.628 80.792-52.732 52.73-86.34 108.98-87.62 141.972-0.040 1.154-0.048 2.28-0.014 3.38zM450.654 234.912c36.22-28.484 71.496-50.856 102.676-65.62 26.020-12.326 49.204-19.268 66.672-20.746 17.468-1.476 27.74 2.066 33.72 8.052l0.2-0.2 42.608 62.304c-2.592 0.068-5.2 0.224-7.82 0.476-22.354 2.152-46.874 10.316-73.36 23.11-32.208 15.554-67.3 38.168-102.93 66.55l-61.764-73.93z" />
<glyph unicode="&#xe901;" glyph-name="class-cavalry" d="M800 928c-42.67-19.46-116.488-34.68-146.172-96.464-44.72-3.896-145.506-21.346-244.44-80.5-116.196-69.48-232.034-194.834-263.552-427.404l-0.96-7.074-5.548-4.5c-61.74-50.004-81.314-77.874-88.832-122.306-7.072-41.8-1.44-102.92-0.726-203.754h606.95c6.91 33.784 20.88 58.49 24.944 83.136 4.674 28.352 0.38 59.876-41.624 117.094-86.156 117.366-93.706 258.916-25.832 342.56-17.308 5.53-30.18 13.774-38.916 25.092-12.23 15.848-14.8 34.012-17.14 51.768l35.696 4.704c2.224-16.892 4.76-27.76 9.94-34.474 5.18-6.712 14.62-12.944 39.1-16.92l-0.044-0.256 0.344 0.34 11.996-18.848c39.914-62.716 85.68-102.584 146.664-108.88l13.020-1.344 2.734-12.8c5.48-25.656 17.252-38.19 30.232-44.476s28.45-5.888 40.94-0.41c18.632 8.172 29.036 22.7 33.4 45.424 4.244 22.1 1.092 51.668-10.274 84.212-67.076 76.496-88.95 174.554-127.806 257.544-12.11 19.894-24.896 37.036-40.77 49.712 10.292 40.572 29.588 81.12 56.676 118.824zM428.136 890.060c-69.036-0.18-135.986-16.18-236.136-47.22 62.292-19.84 140.794-37.8 172.074-78.020 8.926 6.034 17.88 11.76 26.836 17.12 81.020 48.44 160.774 70.572 216.46 80.080-71.708 18.954-126.094 28.188-179.234 28.046zM314.32 766.576c-2.26 0.020-4.53 0.020-6.804-0.008-60.706-0.74-126.2-19.49-193.294-62.566 54.372-7.344 109.34-7.448 145.16-30.796 31.8 35.84 66.288 65.268 101.354 89.336-15.096 2.488-30.584 3.876-46.414 4.034zM736 704c14.595-0.001 26.426-11.834 26.426-26.43v0c0-0.001 0-0.003 0-0.004 0-14.596-11.831-26.429-26.426-26.43v0c-14.595 0.001-26.426 11.834-26.426 26.43 0 0.001 0 0.003 0 0.004v0c0 14.596 11.831 26.429 26.426 26.43v0zM258.188 671.864c-72.79-2.99-137.806-13.060-209.52-49.532 66.472-14.19 101.826-27.014 130.050-67.66 23.044 45.060 50.090 83.86 79.468 117.192zM149.036 557.080c-41.976-0.38-75.808-23.36-117.036-45.080 55.708 0 92.134-7.724 117.42-24.11 8.66 23.304 18.32 45.23 28.82 65.848-10.24 2.38-19.926 3.42-29.204 3.34zM147.79 483.44c-35.866-11.69-70.904-14.3-108.46-44.568 35.24-9.276 69.58-19.192 82.796-44.068 6.992 31.54 15.628 61.046 25.664 88.64zM888.074 466.3c3.234 0.070 6.444-0.088 9.566-0.374l-3.28-35.852c-7.856 0.72-11.026-0.832-11.14-0.93-0.116-0.096-2.070-1.312-1.27-11.772l-35.9-2.744c-1.276 16.7 2.594 32.414 13.91 41.994 8.49 7.186 18.412 9.47 28.114 9.68zM104.43 378.554c-20.704-0.26-47.52-11.292-69.312-24.668 24.346-13.66 24.714-46.944 17.876-75.336 14.6 18.21 33.71 36.646 58.316 56.96 2.032 14.086 4.38 27.8 7.012 41.17-4.164 1.34-8.84 1.94-13.894 1.874z" />
<glyph unicode="&#xe902;" glyph-name="class-infantry" d="M501.764 914.396c-46.732-6.070-89.106-60.888-89.106-131.87 0-39.116 13.542-73.712 33.39-97.63l23.68-28.526-36.434-6.848c-25.8-4.85-44.716-18.48-60.886-40.672-16.17-22.194-28.532-53.116-37.196-88.75-15.686-64.56-19.136-143.386-19.684-212.872h85.736l23.542-315.672c59.788-13.496 123.622-13.020 181.204-0.050l20.828 315.72h81.632c-0.054 70.338-0.954 150.252-15.168 215.3-7.836 35.868-19.716 66.744-36.080 88.686-16.37 21.94-36.16 35.49-65.126 39.978l-37.184 5.76 23.472 29.408c18.99 23.794 31.864 57.994 31.864 96.164 0 75.676-47.31 131.688-98.798 131.688z" />
<glyph unicode="&#xe903;" glyph-name="helm-cavalry" d="M512 906.36l-55.4-36.92 55.4-18.46 55.4 18.46-55.4 36.92zM436.2 838.34c-93-20.14-152.2-78.54-192-158.34-49.96-99.8-66.2-233.6-66.2-360 0-13.4 6.8-25.4 23.4-38.4 16.4-12.8 42.2-24.8 73.8-34.4 63.4-19.2 150.2-29.2 236.8-29.2s173.4 10 236.8 29.2c31.6 9.6 57.4 21.6 73.8 34.4 16.6 13 23.4 25 23.4 38.4 0 126.4-16.2 260.2-66.2 360-39.8 79.8-99 138.18-191.8 158.32l-76-25.3-75.8 25.32zM476.8 696.4h4.2c9.6-0.4 20-2.2 31-5.6 11 3.4 21.4 5.2 31 5.6h4.2c9.6 0 18.4-1.4 26.2-4.6 18.2-7 30.4-22.2 35.6-38.2 9.2-27.2 4.2-57.6-11.4-79.8l55.8 7.6-12-87.8 70.6-53.6-70.6-53.6 12-87.8-87.8 12-53.6-70.6-53.6 70.6-87.8-12 12 87.8-70.6 53.6 70.6 53.6-12 87.8 55.8-7.6c-15.6 22.2-20.6 52.6-11.4 79.8 5.2 16 17.4 31.2 35.6 38.2 7.8 3.2 16.6 4.6 26.2 4.6zM477.2 660.4c-5.8 0-10.4-1-13.8-2.2-7.8-3-11.6-7.8-14.4-15.8-4.4-13.8 0.2-36.2 7.8-48.4h37.2v64.2c-5.2 1.2-10.2 2-14.2 2.2h-2.6zM546.8 660.4h-2.6c-4-0.2-9-1-14.2-2.2v-64.2h37.2c7.6 12.2 12.2 34.6 7.8 48.4-2.8 8-6.6 12.8-14.4 15.8-3.4 1.2-8 2.2-13.8 2.2zM512 526c-43.2 0-78-34.8-78-78s34.8-78 78-78 78 34.8 78 78-34.8 78-78 78zM142.060 326.8c-19.38-13-28.060-25.8-28.060-38.8 0-38 35.1-91.4 105-145.8 68.8-53.4 169.2-108 293-154.8 123.8 46.8 224.2 101.4 293 154.8 70 54.4 105 107.8 105 145.8 0 13-8.6 25.6-28 38.2v-6.2c0-26.6-15.2-49.6-37.2-66.6-22-17.2-51.2-30.2-85.6-40.6-68.6-20.8-157.8-30.8-247.2-30.8s-178.6 10-247.2 30.8c-34.4 10.4-63.6 23.4-85.62 40.6-21.98 17-37.18 40-37.18 66.6 0 2.2 0.040 4.4 0.060 6.8z" />
<glyph unicode="&#xe904;" glyph-name="helm-pickelhaube" d="M920.566 153.228c0-19.202-28.064-55.112-53.654-64.48-5.658-1.757-12.162-2.77-18.904-2.77-0.695 0-1.387 0.011-2.077 0.032l0.101-0.002c-19.072 0-43.314 5.036-53.038 18.648-13.434 19.028-50.382 78.118-104.28 93.608-39.6 11.38-99.44 13.546-142.378 13.546-6.784 0-13.258 0-18.96-0.132q-14.872-0.2-30.096-0.2c-148.388 0-316.798 14.452-324.488 33.148 9.812-2.078 19.734-3.668 29.28-5.016 32.278-4.45 69.575-6.991 107.466-6.991 1.172 0 2.344 0.002 3.515 0.007l-0.181-0.001h0.242c40.33 0 105.718 2.63 171.194 16.31 17.187-12.503 38.715-20.003 61.994-20.003 58.581 0 106.070 47.489 106.070 106.070s-47.489 106.070-106.070 106.070c-45.269 0-83.914-28.358-99.14-68.279l-0.244-0.728c-32.97-6.21-75.664-11.050-129.45-11.27h-4.42c-68.504 0-112.456 8.132-123.44 11.688-2.431 1.518-5.27 2.998-8.223 4.262l-0.417 0.158c11.978 65.852 39.932 139.704 104.5 182.884 52.13 34.87 126.204 42.162 182.090 42.162 27.18 0 50.052-1.722 64.084-2.85 42.648-3.402 178.33-11.468 247.232-50.626 61.632-35.048 75.134-164.454 78.78-263.916 1.28-33.612 62.912-113.21 62.912-131.33zM194.36 197.822c-10.862 2.213-20.394 5.225-29.468 9.102l0.984-0.374c-5.716 2.511-10.636 5.662-14.985 9.451l0.069-0.059c-17.304-22.098-50.34-69.388-47.334-105.252 0.994-11.866 20.86-18.232 51.642-18.232 61.874 0 168.144 25.856 253.376 84.858l0.508 0.374c-48.020 1.68-95.020 4.62-134.576 8.552-33.7 3.36-60.704 7.25-80.216 11.58zM534.38 634.324l9.128-0.706c15.69-1.194 37.566-2.874 62.294-5.614 10.806 37.876 30.938 37.964 31.468 45.544l0.22 2.896c0.028 0.306 0.044 0.661 0.044 1.021 0 3.51-1.532 6.661-3.964 8.823l-0.012 0.010c-37.3 31.844-60.572 104.148-56.86 187.524 0.020 0.254 0.032 0.55 0.032 0.849 0 5.879-4.467 10.716-10.192 11.301l-0.048 0.004h-0.774c-5.86-0.182-10.598-4.751-11.046-10.523l-0.002-0.039c-8.464-83.044-41.986-151.172-83.574-177.248-3.046-2.011-5.088-5.33-5.324-9.138l-0.002-0.034-0.22-2.894c-0.554-7.668 19.092-10.872 24.306-49.212 19.8-0.62 35.688-1.856 44.528-2.564zM138.388 295.076c7.58-5.746 22.96-14.144 68.68-20.574 30.758-4.225 66.302-6.638 102.409-6.638 1.226 0 2.451 0.003 3.675 0.008l-0.19-0.001h0.154c0.727-0.002 1.588-0.003 2.449-0.003 49.637 0 98.296 4.189 145.641 12.233l-5.094-0.716c-9.848 15.739-15.688 34.861-15.688 55.347 0 0.050 0 0.099 0 0.149v-0.008c-36.703-6.131-78.994-9.634-122.104-9.634-0.229 0-0.459 0-0.688 0h-4.516c-78.712 0-130.62 10.34-140.366 15.844-4.578 3.221-10.269 5.148-16.41 5.148-15.866 0-28.728-12.862-28.728-28.728 0-9.048 4.183-17.119 10.72-22.385l0.055-0.043zM546.406 264.138c39.054 0 70.714 31.66 70.714 70.714s-31.66 70.714-70.714 70.714c-39.054 0-70.714-31.66-70.714-70.714v0c0.063-39.007 31.698-70.604 70.714-70.604 0.008 0 0.016 0 0.023 0h-0.001z" />
<glyph unicode="&#xe905;" glyph-name="icon-binoculars" d="M168.876 918.44c-0.828-0.010-1.648-0.020-2.5-0.064-4.546-0.226-9.484-0.954-14.752-2.188-21.064-4.934-45.908-18.66-67.436-40.188-21.528-21.526-35.254-46.372-40.188-67.44-4.934-21.064-1.476-36.46 7.5-45.436 7.86-7.86 20.66-11.526 37.876-9-3.64 10.992-3.514 23.184-0.814 34.564 4.364 18.388 15 36.494 30.628 52.124 15.628 15.632 33.672 26.26 52.060 30.626 4.6 1.088 9.39 1.752 14.128 1.936 7.030 0.27 14.044-0.614 20.624-2.814 2.6 17.328-1.040 30.164-8.94 38.064-6.308 6.312-15.792 9.94-28.186 9.814zM188.75 836.188c-0.664 0.012-1.388-0.020-2.126-0.064-1.96-0.12-4.16-0.46-6.686-1.060-10.114-2.4-23.084-9.456-34.314-20.688-11.232-11.234-18.29-24.2-20.688-34.314-2.4-10.108-0.5-15.436 2.060-18l0.688-0.686 0.624-0.812 82.688-102.5c8.846 18.452 21.692 36.508 38.060 52.88 16.372 16.366 34.428 29.214 52.88 38.060l-103.998 83.996c-1.68 1.68-4.546 3.104-9.19 3.188zM359.19 725.5c-1.524 0.040-3.128 0.024-4.752-0.060-4.336-0.23-9.080-0.93-14.128-2.128-20.19-4.788-44.084-18.084-64.812-38.812s-34.024-44.62-38.812-64.812c-4.788-20.19-1.454-34.734 7-43.188l0.688-0.75 0.624-0.75 7.5-9.25c0.092 0.414 0.152 0.836 0.25 1.25 7.152 30.536 25.186 61.87 52.25 88.94 26.934 26.936 58.1 44.904 88.5 52.12l-8.5 6.88-1.5 1.372c-5.548 5.55-13.656 8.896-24.312 9.188zM421.562 674.188c-5.79 0.020-12.172-0.748-19.12-2.376-22.244-5.208-48.37-19.676-71-42.312-22.636-22.636-37.104-48.756-42.314-71-4.234-18.072-2.632-32.356 3.312-42.25l0.186-0.312 96.75-119.88c12.434 36.504 35.788 73.48 68.436 106.128 32.664 32.66 69.67 56.006 106.188 68.44l-124.5 100.374c-5.114 2.034-11.124 3.166-17.94 3.188zM620.062 543.5c-1.394-0.014-2.82-0.054-4.248-0.126-7.628-0.376-15.7-1.596-24.25-3.624-34.196-8.112-73.44-30.010-107.372-63.94-33.93-33.926-55.826-73.172-63.94-107.372-8.11-34.204-2.768-61.48 13.88-78.128l0.684-0.688 0.626-0.812 0.62-0.812c0.8 7.286 2.090 14.636 3.814 22 10.5 44.812 37.304 91.74 77.814 132.25s87.436 67.316 132.25 77.812c7.404 1.74 14.8 3.026 22.12 3.814l-0.872 0.688-0.812 0.628-0.688 0.688c-11.706 11.704-28.692 17.836-49.626 17.624zM690.502 487.56c-9.9 0.068-20.65-1.2-32.060-3.872-36.524-8.556-78.236-31.796-114.316-67.876s-59.32-77.792-67.874-114.312c-6.38-27.236-4.76-50.56 3.94-68.126l111.748-138.56c0.92 6.37 2.116 12.756 3.62 19.186 12.64 53.96 45.13 110.816 94.252 159.94 49.12 49.12 105.92 81.546 159.876 94.184 4.11 0.964 8.216 1.78 12.312 2.5l-135.126 109c-10.264 5.15-22.512 7.848-36.374 7.94zM896.69 336.56c-1.894-0.010-3.814-0.034-5.75-0.12-10.332-0.472-21.274-2.016-32.69-4.69-45.664-10.696-97.372-39.56-142.060-84.25-44.694-44.69-73.556-96.4-84.252-142.060-10.7-45.666-3.54-83.406 19.81-106.752 15.72-15.724 37.992-24.094 64.812-24.626-1.36 1.206-2.694 2.45-4 3.752-26.9 26.904-32.448 67.47-23 107.812 9.452 40.344 33.514 82.326 69.816 118.626 36.3 36.3 78.344 60.426 118.686 69.876 10.088 2.36 20.172 3.796 30.066 4.186 29.68 1.172 57.508-7.010 77.686-27.188 1.346-1.344 2.636-2.712 3.876-4.124-0.49 26.876-8.88 49.19-24.626 64.94-16.414 16.414-39.96 24.8-68.372 24.62zM913.25 241.126c-1.3-0.010-2.6-0.064-3.936-0.126-7.128-0.334-14.74-1.374-22.75-3.25-32.048-7.508-68.88-28.006-100.748-59.876-15.644-15.644-28.526-32.476-38.5-49.374 3.394 4.052 7.006 8.006 10.876 11.876 34.024 34.020 76.25 49.92 106.44 43-11.754-5.53-23.606-13.73-34.316-24.44-32.38-32.38-42.34-74.908-22.25-95 15.47-15.466 44.304-13.174 71.5 3.5-6.14-9.136-13.496-18.060-21.934-26.5-37.024-37.020-83.752-52.64-114.126-40.686 15.628-12.22 39.234-15.812 68.312-9 32.050 7.508 68.88 28.006 100.75 59.876 31.872 31.868 52.37 68.7 59.88 100.75 7.504 32.048 2.39 57.42-13 72.812-10.826 10.82-26.64 16.586-46.19 16.44z" />
<glyph unicode="&#xe906;" glyph-name="icon-chat" d="M976 262.44h-140.48l-30.2-174.88-97.56 174.88h-369.76v100h380v314h258zM686 808.44v-414h-369.74l-97.58-174.94-30.22 174.94h-140.46v414zM273.448 529.352c0 20.278-24.514 30.428-38.85 16.092s-4.186-38.852 16.092-38.852c12.57 0 22.76 10.19 22.76 22.76zM395.338 529.352c-0.136 20.24-24.64 30.244-38.904 15.886-14.262-14.36-4.094-38.798 16.146-38.798 12.628 0 22.844 10.282 22.76 22.912zM517.228 529.352c0 20.278-24.514 30.428-38.85 16.092-14.338-14.336-4.186-38.852 16.092-38.852 12.568 0 22.76 10.19 22.76 22.76z" />
<glyph unicode="&#xe907;" glyph-name="icon-conquer" d="M724.080 911.368c-4.176 1.078-42.734-54.010-63.572-75.486-36.75 16.554-107.184 53.064-110.25 49.66-1.62-1.796 36.426-62.61 66.202-134.112l-102.28-25.032-152.726 91.048-86.914-100.74c-53.932 66.408-113.288 119.14-115.65 117.974-3.866-1.908 2.88-68.81 1.11-98.68-38.648-11.446-115.84-29.756-115.94-34.336-0.060-2.654 82.528-28.014 157.976-68.996l-102.896-119.26 45.684-366.988 293.246 78.786 62.372-52.45c-76.226-24.654-145.514-36.572-145.794-39.098-0.568-5.13 82.9-37.104 124.352-55.656-2.484-33.622-20.006-107.328-15.972-110.036 2.45-1.646 75.968 47.94 145.836 113.614l130.316-109.58h55.94l-160.406 134.886c33.056 33.72 63.046 70.208 81.26 105.43 7.78-5.58 21.748-34.982 26.944-34.188 7.616 1.166 45.18 165.866 38.934 170.622-8.892 6.77-164.166-56.504-163.652-60.144 0.48-3.416 33.206-18.13 48.234-28.992-29.874-30.388-77.436-54.416-126.496-73.028l-93.070 78.26-271.43-72.92-38.6 310.066 96.794 112.188c28.234-17.872 53.386-38.004 69.896-59.996-14.5-7.79-45.020-16.88-45.844-19.828-0.88-3.142 128.276-77.070 136.894-72.16 6.054 3.448-7.62 152.758-14.184 154.68-4.478 1.31-20.22-22.914-27.722-26.908-11.334 31.612-31.966 65.5-55.648 97.688l71.948 83.394 139.442-83.128 121.12 29.64c13.88-39.23 23.316-79.36 21.044-113.104-16.068 3.56-45.126 16.592-47.676 14.898-2.718-1.806 46.88-142.12 56.614-144.024 6.838-1.34 93.932 120.706 90.214 126.446-2.536 3.916-30.276-4.16-38.566-2.29 15.416 40.12 21.752 92.992 23.422 143.786l105.84 25.9 147.574-106.164v44.348l-140.020 100.73-112.944-27.64c-0.558 71.306-8.752 130.352-10.958 130.92z" />
<glyph unicode="&#xe908;" glyph-name="icon-exit" d="M434 903.804v-911.608l284 85.194v741.216zM753.876 850.044l0.124-4.654v-59.39h32v64zM238 850v-234.54h36v198.54h124v36zM754 750v-32h32v32zM754 682v-472h32v472zM274 564.546v-70.546h-192v-92h192v-70.546l116.546 116.546zM488 496c13.254 0 24-21.49 24-48s-10.746-48-24-48-24 21.49-24 48 10.746 48 24 48zM274 280.54h-36v-216.54h36zM754 174v-28h32v28zM754 110v-46h32v46zM64 18v-36h334v36zM645.304 18l-120-36h434.696v36z" />
<glyph unicode="&#xe909;" glyph-name="icon-info" d="M512 918c-259.148 0-470-210.852-470-470s210.852-470 470-470 470 210.852 470 470-210.852 470-470 470zM512 846c220.236 0 398-177.764 398-398s-177.764-398-398-398-398 177.764-398 398 177.764 398 398 398zM497.296 772.512c-16.454 0-30.634-5.952-42.54-17.856-11.552-11.904-17.33-25.91-17.33-42.016 0-16.454 5.78-30.46 17.332-42.012 11.9-11.552 26.080-17.332 42.536-17.332s30.46 5.78 42.012 17.332c11.554 11.554 17.332 25.56 17.332 42.012 0 16.106-5.952 30.112-17.854 42.016-11.554 11.904-25.384 17.856-41.49 17.856zM371.782 607.606v-56.192h92.43v-372.26h-92.432v-55.666h280.44v55.668h-91.38v428.45h-189.060z" />
<glyph unicode="&#xe90a;" glyph-name="icon-move" d="M43.57 698.38h491.9v173.94l443.294-424.32-443.288-424.316v173.936h-491.904v500.76z" />
<glyph unicode="&#xe90b;" glyph-name="icon-mute" d="M551 768l-192-192h-192v-256h192l192-192v640zM652.726 588.726l-25.452-25.452 115.272-115.274-115.272-115.274 25.452-25.452 115.274 115.272 115.274-115.272 25.452 25.452-115.272 115.274 115.272 115.274-25.452 25.452-115.274-115.272-115.274 115.272z" />
<glyph unicode="&#xe90c;" glyph-name="icon-player" d="M514.816 915.746l-46.164-124.070-62.034 115.414-23.084-118.3-88.004 111.086 12.99-159.876c54.526-54.526 357.276-55.326 412.6 0l11.544 159.872-88.004-111.086-23.080 118.3-62.040-113.972-44.724 122.626zM515.716 657.558c-37.45 0-72.16-18.216-98.12-51.392-25.954-33.176-42.046-80.986-42.046-133.156 0-55.356 18.94-104.274 47.892-137.828l21.024-23.364-30.37-7.008c-80.56-18.354-119.024-56.566-141.332-115.636-20.766-54.992-24.028-130.84-24.526-220.76h538.462c-0.094 90.3-0.7 168.124-19.856 224.268-20.56 60.26-58.244 98.696-144.836 115.632l-30.372 5.84 19.856 24.532c27.148 33.368 44.386 80.92 44.386 134.324 0 52.17-16.096 99.98-42.052 133.156s-60.664 51.39-98.114 51.39z" />
<glyph unicode="&#xe90d;" glyph-name="icon-settings" d="M469.75 922.44c-52.174-4.734-103.114-17.12-149.75-37.564 30.74-65.526 28.444-133.412-13.44-164.814-41.67-31.234-108.11-15.93-162.248 31.38-32.492-38.904-58.672-82.72-77.75-131.252 67.66-24.666 113.27-75.33 105.88-127-7.396-51.67-65.394-87.48-137.252-92.188 4.676-51.592 17.82-101.556 37.874-147.75 35.62 16.364 71.586 22.18 102.19 17.876 26.064-3.74 47.854-14.030 62.312-33.314 31.634-42.194 15.206-109.426-33.56-163.94 39.032-32.7 84.432-58.888 133.188-78.060 24.66 67.656 75.31 113.268 127 105.876 51.688-7.394 87.48-65.392 92.188-137.25 52.174 4.73 103.114 17.11 149.75 37.56-31.532 65.994-28.52 135.176 13.686 166.812 19.28 14.46 45.136 18.044 71.188 14.25 30.224-4.32 62.38-20.5 91.126-45.56 32.176 38.69 58.8 83.020 77.75 131.188-67.66 24.664-113.27 75.306-105.876 127 7.394 51.692 65.33 87.544 137.188 92.25-4.72 51.888-17.548 101.326-37.812 147.748-65.224-30.234-133.32-26.29-164.564 15.374-31.392 41.888-14.504 107.72 33.376 162-39.040 32.704-84.496 58.894-133.25 78.064-24.664-67.656-75.314-113.32-127-105.936-51.692 7.386-87.488 65.392-92.19 137.25zM513.062 732.188c159.252 0 288.752-129.504 288.752-288.75 0-159.252-129.5-288.752-288.75-288.752-159.248 0-288.748 129.5-288.748 288.75 0 159.248 129.5 288.748 288.75 288.748zM513.062 694.812c-139.048 0-251.372-112.324-251.372-251.374 0-139.052 112.324-251.38 251.374-251.38 139.052 0 251.38 112.328 251.38 251.38 0 139.044-112.328 251.372-251.38 251.372zM513.128 664.562c122.188 0 221.25-99.060 221.25-221.248 0-122.19-99.060-221.25-221.25-221.25s-221.25 99.060-221.25 221.252c0 122.19 99.060 221.25 221.25 221.25z" />
<glyph unicode="&#xe90e;" glyph-name="icon-unmute" d="M551 768l-192-192h-192v-256h192l192-192v640zM653.92 712.664l-9.32-34.774c104.132-27.9 176.4-122.080 176.4-229.89 0-107.808-72.268-201.988-176.4-229.89l9.32-34.774c119.7 32.074 203.080 140.74 203.080 264.664 0 123.926-83.38 232.59-203.080 264.664zM629.070 619.934l-9.316-34.774c62.166-16.656 105.246-72.804 105.246-137.16s-43.080-120.504-105.246-137.16l9.316-34.774c77.734 20.83 131.93 91.46 131.93 171.934 0 80.476-54.196 151.104-131.93 171.934zM604.222 527.208l-9.314-34.774c20.192-5.414 34.092-23.528 34.092-44.434s-13.9-39.020-34.094-44.434l9.316-34.774c35.768 9.584 60.78 42.18 60.78 79.208 0 37.026-25.012 69.624-60.78 79.208z" />
<glyph unicode="&#xe90f;" glyph-name="unit-art_heavy" d="M538.376 648.852l-33.288-13.704 224-544 33.288 13.704zM924.026 579.29l-273.466-112.602 27.42-66.58 273.46 112.602zM897.792 454.378l-206.7-86.12 13.17-29.88 173.090 72.266zM552.912 426.478l-172.886-71.188 16.324-39.646c-8.031-5.031-14.964-10.13-21.497-15.685l0.257 0.213c-52.93-44.926-76.004-111.994-78.826-165.26l-256.572-95.95 12.040-33.928 280.11 104.296-0.13 12.848c-0.44 44.080 20.134 111.044 66.676 150.546 43.502 36.924 133.398 60.916 213.274 11.028-59.018 142.648-38.422 90.154-58.77 142.722zM513.732 276c-80.42 0-146-65.58-146-146s65.58-146 146-146 146 65.58 146 146-65.58 146-146 146zM513.732 240c60.964 0 110-49.036 110-110s-49.036-110-110-110-110 49.036-110 110 49.036 110 110 110zM515.732 198c-36.238 0-66-29.762-66-66s29.762-66 66-66 66 29.762 66 66-29.762 66-66 66z" />
<glyph unicode="&#xe910;" glyph-name="unit-art_light" d="M284.746 727.43l-31.84-19.58 38.446-62.514c-34.416-26.12-56.652-67.45-56.652-113.988 0-43.11 19.1-81.732 49.264-107.954l-143.52-184.32-99.124-38.454v-35.656h143.668l147.176 191.56h16.44c-10.766-85.12 42.868-167.614 127.99-190.42 92.896-24.894 188.874 30.52 213.766 123.416 6.030 22.506 7.334 45.19 4.546 67.004h70.6v61.22l219.716 15.936v192.73l-573.31 43.82c-10.96 2.69-22.4 4.144-34.188 4.144-19.060 0-37.24-3.76-53.868-10.53l-39.106 63.586zM521.274 471.92c11.872 0.020 23.956-1.514 35.996-4.74 73.384-19.664 116.646-94.6 96.984-167.984-19.664-73.384-94.6-116.652-167.984-96.988-73.384 19.66-116.652 94.6-96.988 167.984 15.98 59.624 68.444 99.368 126.92 101.628 1.686 0.066 3.38 0.1 5.074 0.1zM528.54 432.426l-16.45-61.394-44.94 44.94-26.432-26.43 44.94-44.94-61.39-16.452 9.676-36.106 61.39 16.452-16.45-61.39 36.106-9.67 16.45 61.386 44.94-44.94 26.428 26.432-44.936 44.94 61.39 16.452-9.674 36.104-61.39-16.448 16.448 61.394-36.104 9.676z" />
<glyph unicode="&#xe911;" glyph-name="unit-art_mortar" d="M812.8 825.5c-4.2 0-8-1.6-11.4-3.8-8.6-5.8-15.2-16.8-1.6-37.2l106.8-159.7c13.6-20.4 26.4-18.6 35-12.8 8.8 5.8 15.4 16.8 1.8 37.2l-107 159.7c-8.4 12.8-16.6 16.8-23.6 16.6zM784 743.2l-282.4-177c9.2-24.8 24.2-52.4 42.2-77.6l3.6-4.8c2.151 0.362 4.642 0.579 7.18 0.6h0.020c19.984-0.042 37.097-12.289 44.283-29.681l0.117-0.319h43.2l218.4 174.4zM470.4 546.6l-198.2-124.4c8.2-34.6 23-67.2 43.4-95.8h109v128h85.6c1.658 4.124 3.674 7.683 6.091 10.927l-0.091-0.127c-0.6 0.8-1.2 1.8-1.8 2.6-18 25.2-33.4 52.2-44 78.8zM460.6 418.4v-128h-128v-128h-128v-92h418.2c-13.8 17-22.2 38.6-22.2 62 0 47.8 34.6 87.8 80 96.4v189.6zM240.2 402.2l-68.4-43c-51.2-36.6-24.6-116.8 23.080-160.8h101.72v93.2c-25.8 32.6-45.2 70.2-56.4 110.6zM858.6 322.4c-34.4 0-62-27.6-62-62 0-11.2 2.8-21.6 8-30.6 21.4-2 40.8-11.2 56-25 14 12.8 32 21.6 51.8 24.6 5.2 9 8.2 19.6 8.2 31 0 34.4-27.6 62-62 62zM133.32 218.2c-7.22-8-16.48-15.6-27.14-22-22.52-13.6-50.38-22.2-70.82-22.8l1.16-36c28.62 1 60.58 11.2 88.36 28 10.76 6.6 21 14.2 29.92 23-8 9.2-15.22 19.2-21.48 29.8zM698.6 194.4c-34.4 0-62-27.6-62-62s27.6-62 62-62c6.4 0 12.4 1 18 2.6-12.4 16.6-20 37.2-20 59.4s7.6 42.8 20 59.4c-5.6 1.6-11.6 2.6-18 2.6zM794.6 194.4c-34.4 0-62-27.6-62-62s27.6-62 62-62 62 27.6 62 62-27.6 62-62 62zM926.6 194.4c-17.4 0-33-7-44.2-18.4 6.4-13.2 10.2-28 10.2-43.6s-3.8-30.4-10.2-43.6c11.2-11.4 26.8-18.4 44.2-18.4 34.4 0 62 27.6 62 62s-27.6 62-62 62z" />
<glyph unicode="&#xe912;" glyph-name="unit-cav_dragoon" d="M969.832 923.504c89.974-256.46-232.132-519.344-574.824-725.652 9.29-27.534 11.17-55.256 6.788-81.27-8.88-52.71-41.948-97.994-85.72-124.85-43.768-26.856-99.552-35.14-151.29-11.53-51.74 23.608-97.38 77.846-125.474 169.308l35.73 10.976c26-84.636 65.612-128.188 105.26-146.28 39.65-18.094 81.38-11.996 116.232 9.386 34.85 21.38 61.5 58.19 68.41 99.2 6.91 41.014-4.464 86.636-49.354 130.436-41.486 40.48-64.136 83.23-60.868 122.48l37.244-3.104c-1.48-17.78 8.7-45.52 33.368-74.972 254.552 200.768 550.99 405.124 644.498 625.872zM290.914 228.48c12.45-13.644 21.34-27.22 27.36-40.42-29.772-45.7-97.78-102.6-149.472-120.51-11.312 9.836-22.2 23.020-32.1 40.28 30.036 48.14 102.008 103.448 154.21 120.65z" />
<glyph unicode="&#xe913;" glyph-name="unit-cav_heavy" d="M510.364 122.444c19.756 0 96.766 0.268 154.388 3.9-8.037-78.015-73.414-138.346-152.882-138.346-79.402 0-144.737 60.231-152.808 137.497l-0.056 0.663c53.498-3.384 124.32-3.714 151.358-3.714zM748.71 275.824c-35.060-9.818-137.064-14.726-238.408-14.726-101.346 0-202.112 4.908-235.008 14.724-10.992 3.28-24.748 8.478-23.016 20.11l12.106 83.256c10.12-6.352 22.12-10.709 34.992-12.212l0.4-0.038c56.632-6.558 205.76-7.61 212.092-7.61h0.268c6.332 0 155.462 1.072 212.094 7.61 13.271 1.541 25.271 5.898 35.749 12.46l-0.359-0.21 12.106-83.256c1.692-11.632-11.96-17.056-23.016-20.13zM336.24 320.72c0 0.006 0 0.013 0 0.020 0 11.333-9.187 20.52-20.52 20.52s-20.52-9.187-20.52-20.52c0-11.333 9.187-20.52 20.52-20.52v0c0.018 0 0.039 0 0.060 0 11.319 0 20.497 9.164 20.52 20.478v0.002zM720.87 320.72c0 0.006 0 0.013 0 0.020 0 11.333-9.187 20.52-20.52 20.52s-20.52-9.187-20.52-20.52c0-11.333 9.187-20.52 20.52-20.52v0c0.018 0 0.040 0 0.062 0 11.319 0 20.497 9.164 20.52 20.478v0.002zM720.396 400.060c-55.456-6.414-208.422-7.054-208.422-7.054s-152.946 0.62-208.402 7.054c-25.368 2.928-45.372 22.83-44.65 49.064 0 0 18.004 180.766 19.262 256.868 0.784 48.114-42.568 107.676 19.056 131.166l96.044 39.64v31.202s43.62-28.048 119.618-28.048c76 0 119.618 28.048 119.618 28.048v-31.204l95.094-39.66c61.624-23.49 17.572-83.050 18.356-131.166 1.258-76.1 19.16-256.868 19.16-256.868 0.824-26.212-19.326-46.114-44.692-49.042zM336.3 788.28c0 11.333-9.187 20.52-20.52 20.52s-20.52-9.187-20.52-20.52c0-11.333 9.187-20.52 20.52-20.52v0c11.333 0 20.52 9.187 20.52 20.52v0zM720.93 788.28c0 11.333-9.187 20.52-20.52 20.52s-20.52-9.187-20.52-20.52c0-11.333 9.187-20.52 20.52-20.52v0c11.333 0 20.52 9.187 20.52 20.52v0zM712.516 164.702c-26.584-6.186-114.646-9.32-202.112-9.32-87.464 0-174.476 3.010-198.874 9.196-14.952 3.796-24.356 10.416-23.18 22.336l4.826 51.56c63.788-9.612 178.91-10.456 217.146-10.456 76.556 0 167.836 2.908 220.55 10.66l4.764-51.784c1.216-11.9-8.106-18.706-23.12-22.192zM346.612 201.826c0 11.333-9.187 20.52-20.52 20.52s-20.52-9.187-20.52-20.52c0-11.333 9.187-20.52 20.52-20.52v0c11.333 0 20.52 9.187 20.52 20.52 0 0.007 0 0.014 0 0.021v-0.001zM710.62 201.826c0 11.333-9.187 20.52-20.52 20.52s-20.52-9.187-20.52-20.52c0-11.333 9.187-20.52 20.52-20.52v0c11.333 0 20.52 9.187 20.52 20.52 0 0.007 0 0.014 0 0.021v-0.001z" />
<glyph unicode="&#xe914;" glyph-name="unit-cav_hussar" d="M647.6 660.8l20.8-27.6 315.2 239.2-20.8 27.6zM457.4 516.4l50.6-66.6-137.4-129.4-43 20.2 18.6 91.4zM36.6 111.6l198.2 190.6s43.4-21 55-17.4c1 0.4 2 0.8 2.8 1.6 5.2 4 12 13.8 18.2 24l2.2-1 38-17.6-202.4-295.8c-13.6 80.6-103.2 115-112 115.6zM484.8 537.2l135.4 102.6 34.2-45.2c9.4-12.6 7.8-31-4.8-40.4l-112.8-85.6-1.4 2zM355.2 172.6c15.8-9.6 36.6-4.6 46.2 11.4l28 46.2c6.8 11.4 6.4 25.6-1.2 36.6 2.6 1.4 5 3 7.2 4.6 10.8 8 18 19.8 20.2 32.8 2.2 13.6-1 27.6-8.8 40.6l-12.8-12.2c4.2-7.8 6-16.8 4.6-25.8-2-12.8-11.4-23-25.4-28.4-15.4 6.2-33 0.4-41.4-13.8l-28-46.2c-9.6-15.6-4.6-36.2 11.4-45.8zM358.6 209.8l28.2 46.4c4.8 7.8 14.8 10.2 22.6 5.6l2.2-1.6c6.2-5.2 7.6-14.2 3.4-21l-28.2-46.4c-4.8-7.8-14.8-10.4-22.6-5.6-7.8 4.6-10.4 14.8-5.6 22.6zM693.8 587.8c-1 6-3 11.8-5.6 17.4l288.8 219 10.4-13.8zM308.4 418.8l-6.4-31.2c-15.4 6.6-20.4 24.2-36.2 18.4 4.8 17.2 32.8 10.6 42.6 12.8z" />
<glyph unicode="&#xe915;" glyph-name="unit-cav_lancer" d="M39.688 4.44l0.25-24.814 60 0.124 355 355.94c-17.914 9.96-32.176 25.768-40.128 44.81l-375.122-376.060zM445.188 415.312c0-29.892 23.86-53.688 53.75-53.688s53.748 23.796 53.748 53.688c0 29.892-23.86 53.75-53.75 53.75-29.894 0-53.752-23.856-53.752-53.748zM476.688 717.062c22.826-31.81 36.808-63.274 43-94.934 79.14 58.526 142.886 99.854 192 124.56 27.046 13.608 49.576 22.324 69.124 25.814s38.834 1.752 51.812-11.626c12.98-13.376 14.416-32.432 11.064-52.25-3.352-19.816-11.76-42.788-24.876-70.374-24.116-50.736-64.588-116.754-121.812-198.44 32.694-5.292 64.42-17.808 95.060-38.12 87.16 128.14 167.566 326.992 177.566 492.936-170.494 7.228-362.048-84.656-492.94-177.564zM509.812 505.752c39.336-4.75 71.16-34.824 78.56-73.312 22 6.14 43.632 9.552 64.88 10.186 63.594 89.456 107.57 160.628 131.81 211.624 12.254 25.776 19.368 46.526 21.752 60.626 2.386 14.1-0.24 19.154-1 19.936-0.76 0.784-4.92 3.288-18.44 0.876-13.512-2.414-33.68-9.704-58.872-22.376-49.294-24.8-118.212-69.76-205.126-135-0.576-23.844-5.22-47.936-13.56-72.56z" />
<glyph unicode="&#xe916;" glyph-name="unit-inf_heavy" d="M511.956 881.58c-59.196-95.36-189.19-251.12-299.956-329.006v-105.774c106.226 77.84 210.226 185.076 281.12 291.42l18.88 28.31 18.88-28.314c70.666-106 175.926-212.596 281.12-290.946v105.19c-112.78 77.87-241.308 233.89-300.044 329.12zM511.956 664.768c-59.196-95.354-189.19-251.116-299.956-329v-105.78c106.226 77.832 210.226 185.072 281.12 291.412l18.88 28.32 18.88-28.32c70.666-106 175.926-212.596 281.12-290.946v105.194c-112.78 77.874-241.308 233.888-300.044 329.114zM511.956 449.204c-59.196-95.354-189.19-251.116-299.956-329v-105.78c106.226 77.836 210.226 185.072 281.12 291.414l18.88 28.32 18.88-28.32c70.666-106 175.926-212.596 281.12-290.946v105.194c-112.78 77.876-241.308 233.89-300.044 329.116z" />
<glyph unicode="&#xe917;" glyph-name="unit-inf_home" d="M972 217.368v457.132c-104.54-73.586-230.963-123.209-367.797-138.241l-3.573-0.319c16.326 140.923 67.089 267.506 143.587 374.417l-1.641-2.413h-457.136c73.586-104.54 123.209-230.965 138.241-367.799l0.319-3.573c-140.922 16.327-267.502 67.091-374.413 143.589l2.413-1.641v-457.14c104.54 73.586 230.963 123.209 367.797 138.241l3.573 0.319c-16.347-140.882-67.107-267.421-143.587-374.301l1.641 2.413h457.136c-73.57 104.51-123.19 230.895-138.241 367.688l-0.319 3.576c140.922-16.327 267.502-67.091 374.413-143.589l-2.413 1.641z" />
<glyph unicode="&#xe918;" glyph-name="unit-inf_light" d="M931.318 874.74l-32.32-23.66 23.64-31.38-0.544-0.362 12.64-17.118 45.102 34-16 21.36-12.52-9.42-20 26.58zM873.138 831.78l-334.922-239.5c0-1.080-0.12-2.060-0.12-3.080l-4.32-45.56c-0.903-9.452-5.795-17.606-12.951-22.857l-0.089-0.063-83.82-61c-5.21-3.828-11.751-6.126-18.829-6.126-10.593 0-19.984 5.147-25.808 13.077l-0.062 0.089-9.9 13.6-59.58-42.96c-3.34-2.44-4.022-7.48-1.622-12l4.18-7.902c0.91-1.459 1.449-3.231 1.449-5.129 0-2.101-0.661-4.047-1.786-5.642l0.021 0.031-96-117.42c-0.169-0.201-0.354-0.378-0.556-0.534l-0.008-0.006-181.398-140.84c-3.68-2.86-3.82-8.92-0.3-13.52l81.64-108.358c1.994-2.808 5.175-4.659 8.796-4.819l0.024-0.001h0.36c2.377 0.055 4.453 1.296 5.664 3.153l0.016 0.027 168.86 222.6c1.831 1.551 2.986 3.852 2.986 6.423 0 0.826-0.119 1.623-0.341 2.377l0.015-0.059s-6.080 32.14-4.64 34.14c0 0 57.4 76.78 57.9 77.16l541.58 415.52-36.44 49.18zM506.138 592.14l-108.28-78.78 20.236-27.82 83.82 61 4.224 45.6zM546.414 463.64l-77.258-59.2 14.98-30.74c1.714-3.429 5.199-5.743 9.224-5.743 0.083 0 0.165 0.001 0.248 0.003h0.488c3.754 0.175 7.037 2.050 9.117 4.867l0.023 0.033 45.54 61.18c1.395 1.854 2.235 4.195 2.235 6.733 0 0.81-0.085 1.6-0.248 2.361l0.013-0.074-4.36 20.58zM427.534 372.44l-11.858-9.18c2.291-3.761 3.648-8.31 3.648-13.176 0-14.15-11.47-25.62-25.62-25.62-3.993 0-7.772 0.913-11.141 2.542l0.153-0.067-9.040-12c5.753-3.324 12.654-5.285 20.014-5.285 20.402 0 37.284 15.071 40.121 34.687l0.026 0.218c0.255 1.7 0.4 3.662 0.4 5.658 0 8.278-2.502 15.972-6.792 22.366l0.091-0.145z" />
<glyph unicode="&#xe919;" glyph-name="unit-inf_skirmish" d="M530.44 920.624v-115.5c182.066-9.12 328.286-155.372 337.434-337.436h115.5c-9.27 246.24-206.69 443.7-452.936 452.94zM493.060 920.564c-245.72-9.864-443.626-207.052-452.934-452.878h116.754c9.12 181.648 154.692 327.654 336.18 337.374v115.5zM512.44 706.124c-64.46 0-123.536-23.58-168.816-62.624l44.94-44.94c24.612 20.492 54.408 34.974 87.124 41.252l37.56-141.060 37.5 140.748c31.774-6.364 60.74-20.464 84.814-40.312l44.69 44.688c-44.93 38.82-103.564 62.25-167.812 62.25zM706.688 617.438l-44.688-44.69c19.992-24.272 34.144-53.54 40.44-85.626l-140.19-37.374 140.25-37.312c-6.3-32.494-20.62-62.224-40.876-86.88l44.688-44.684c39.026 45.274 62.624 104.308 62.626 168.75 0 64.248-23.432 122.88-62.252 167.812zM317.188 617.124c-38.956-44.892-62.56-103.394-62.56-167.5 0-64.3 23.77-123.2 62.934-168.44l45.064 45.064c-19.866 24.404-33.92 53.732-40.186 85.75l141.872 37.75-141.812 37.812c6.272 31.62 20.196 60.47 39.812 84.5l-45.124 45.064zM40.188 430.31c9.9-245.33 207.548-442.974 452.872-452.87v116.68c-181.088 9.704-326.42 155.094-336.12 336.188h-116.754zM867.812 430.31c-9.724-181.51-155.7-327.15-337.372-336.25v-116.684c245.848 9.276 443.014 207.192 452.872 452.936h-115.5zM513.252 400.81l-37.94-142.56c-32.416 6.376-61.99 20.91-86.44 41.374l-44.872-44.874c45.236-39.164 104.144-62.94 168.44-62.94 64.1 0 122.608 23.606 167.5 62.566l-44.69 44.686c-23.91-19.828-52.592-33.96-84.060-40.434l-37.94 142.186z" />
</font>
</defs>
</svg>
